<svg width="65" height="65" xmlns="http://www.w3.org/2000/svg" xml:space="preserve" enable-background="new 0 0 65 65" version="1.1">
 <title>LogoNikkeiCravings</title>

 <g>
  <title>Layer 1</title>
  <g id="svg_1">
   <path id="svg_2" d="m24.278,36.581c-0.682,0.421 -1.172,1.161 -1.281,1.953c-0.121,0.769 0.099,1.58 0.59,2.182c-0.711,0.499 -1.211,1.281 -1.382,2.132c-0.2,0.911 -0.01,1.913 0.521,2.684c0.641,0.962 1.762,1.571 2.924,1.563c1.031,0.02 2.053,-0.451 2.723,-1.242c0.672,-0.771 0.971,-1.853 0.792,-2.862c-0.13,-0.854 -0.612,-1.623 -1.263,-2.183c0.682,-0.752 0.891,-1.903 0.51,-2.854c-0.31,-0.842 -1.07,-1.512 -1.951,-1.722c-0.742,-0.182 -1.542,-0.062 -2.183,0.349zm16.578,-4.005l-9.66,5.787c-0.141,0.09 -0.291,0.148 -0.402,0.27c-0.129,0.19 0.021,0.401 0.121,0.562c0.812,1.352 2.103,2.502 3.674,2.843c1.352,0.311 2.764,-0.02 3.977,-0.632c1.11,-0.57 2.15,-1.3 2.923,-2.282c0.61,-0.801 1.001,-1.771 1.04,-2.783c0.051,-1.312 -0.41,-2.612 -1.162,-3.684c-0.099,-0.191 -0.348,-0.211 -0.511,-0.081zm0.392,-5.616c-0.491,0.711 -0.611,1.631 -0.342,2.442c0.23,0.73 0.782,1.342 1.473,1.672c0.581,0.271 1.261,0.33 1.882,0.182c0.211,0.85 0.722,1.621 1.452,2.111c0.91,0.631 2.133,0.79 3.173,0.42c0.991,-0.33 1.813,-1.131 2.164,-2.111c0.33,-0.912 0.27,-1.943 -0.172,-2.804c-0.46,-0.921 -1.35,-1.622 -2.361,-1.853c-0.801,-0.189 -1.652,-0.07 -2.404,0.28c-0.46,-0.991 -1.551,-1.643 -2.643,-1.581c-0.881,0.03 -1.741,0.511 -2.222,1.242zm-7.53,-20.964l-0.068,-0.091c2.932,1.23 5.746,2.772 8.408,4.515c2.214,1.462 4.366,2.994 6.449,4.605c2.292,1.793 4.514,3.685 6.477,5.817c1.562,1.722 3.004,3.603 3.885,5.768c0.672,1.661 0.932,3.512 0.57,5.275c-0.439,2.192 -1.662,4.145 -3.084,5.837c-1.662,1.962 -3.613,3.664 -5.646,5.245c-2.572,1.993 -5.285,3.785 -8.049,5.507c-4.715,2.934 -9.592,5.666 -14.777,7.709c-3.104,1.213 -6.318,2.193 -9.641,2.553c-1.863,0.19 -3.755,0.16 -5.586,-0.25c-1.402,-0.31 -2.756,-0.871 -3.936,-1.701c-1.912,-1.332 -3.273,-3.314 -4.166,-5.437c-1.16,-2.784 -1.641,-5.797 -1.841,-8.792c-0.161,-2.502 -0.121,-5.016 0.05,-7.528c0.371,-5.165 1.072,-10.342 2.572,-15.318c0.922,-0.199 1.883,0.051 2.674,0.532c1.102,0.67 1.973,1.651 2.744,2.672c2.102,2.854 3.513,6.138 5.006,9.342c0.52,1.111 1.14,2.213 2.031,3.074c0.621,0.61 1.401,1.09 2.273,1.2c0.871,0.12 1.742,-0.13 2.492,-0.561l17.58,-10.241c0.531,-0.321 1.092,-0.602 1.573,-0.981c0.819,-0.632 1.57,-1.423 1.892,-2.424c0.291,-0.891 0.15,-1.871 -0.2,-2.722c-0.552,-1.242 -1.202,-2.434 -1.902,-3.595c-1.383,-2.313 -2.894,-4.555 -4.596,-6.647c-0.971,-1.202 -2.011,-2.342 -3.184,-3.363z" fill="#FFFFFF" clip-rule="evenodd" fill-rule="evenodd"/>
   <g id="svg_3">
    <path id="svg_4" d="m33.649,5.996c1.17,1.021 2.202,2.161 3.183,3.363c1.702,2.093 3.214,4.335 4.595,6.647c0.702,1.161 1.353,2.353 1.893,3.595c0.361,0.851 0.502,1.831 0.211,2.722c-0.32,1.001 -1.071,1.792 -1.893,2.424c-0.49,0.38 -1.051,0.66 -1.582,0.981l-17.58,10.242c-0.74,0.431 -1.623,0.681 -2.482,0.561c-0.871,-0.11 -1.652,-0.59 -2.272,-1.2c-0.892,-0.861 -1.522,-1.963 -2.034,-3.074c-1.49,-3.204 -2.902,-6.487 -5.016,-9.342c-0.771,-1.021 -1.631,-2.002 -2.742,-2.672c-0.781,-0.481 -1.742,-0.731 -2.664,-0.532c-1.502,4.977 -2.212,10.153 -2.572,15.318c-0.17,2.513 -0.221,5.026 -0.061,7.528c0.211,2.995 0.691,6.008 1.854,8.792c0.881,2.122 2.252,4.104 4.164,5.437c1.172,0.83 2.533,1.392 3.935,1.701c1.823,0.41 3.724,0.44 5.577,0.25c3.324,-0.359 6.547,-1.34 9.65,-2.553c5.177,-2.043 10.052,-4.775 14.777,-7.709c2.754,-1.722 5.477,-3.514 8.051,-5.507c2.021,-1.581 3.984,-3.283 5.645,-5.245c1.423,-1.692 2.643,-3.645 3.084,-5.837c0.361,-1.764 0.101,-3.614 -0.58,-5.275c-0.871,-2.165 -2.313,-4.046 -3.874,-5.768c-1.974,-2.133 -4.185,-4.024 -6.479,-5.817c-2.092,-1.611 -4.244,-3.144 -6.445,-4.605c-2.664,-1.742 -5.477,-3.284 -8.411,-4.515l0.068,0.09zm-11.283,-4.496l1.131,0c4.525,0.149 8.9,1.552 12.965,3.474c2.652,1.252 5.186,2.743 7.609,4.395c2.112,1.433 4.174,2.913 6.176,4.496c2.072,1.642 4.074,3.384 5.887,5.316c1.514,1.602 2.895,3.354 3.916,5.306c0.67,1.292 1.182,2.684 1.393,4.125c0.06,0.35 0.068,0.7 0.129,1.052l0,1.101c-0.09,0.921 -0.23,1.843 -0.51,2.724c-0.721,2.282 -2.104,4.295 -3.676,6.067c-1.641,1.851 -3.523,3.473 -5.467,4.995c-2.192,1.703 -4.493,3.264 -6.838,4.756c-4.624,2.934 -9.38,5.708 -14.416,7.899c-2.903,1.262 -5.896,2.332 -9,3.014c-2.894,0.63 -5.918,0.91 -8.86,0.391c-2.313,-0.411 -4.535,-1.382 -6.308,-2.924c-2.063,-1.771 -3.475,-4.195 -4.355,-6.748c-1.231,-3.566 -1.592,-7.361 -1.642,-11.116l0,-0.909c0.03,-2.944 0.261,-5.878 0.601,-8.801c0.41,-3.414 1.021,-6.818 1.952,-10.132c1.062,-3.705 2.522,-7.329 4.745,-10.482c1.252,-1.782 2.773,-3.404 4.536,-4.686c1.712,-1.252 3.665,-2.183 5.726,-2.712c1.402,-0.371 2.853,-0.54 4.306,-0.601z" fill="#060505" clip-rule="evenodd" fill-rule="evenodd"/>
   </g>
   <path id="svg_5" d="m41.168,26.96c0.489,-0.731 1.341,-1.212 2.232,-1.241c1.091,-0.062 2.173,0.59 2.644,1.581c0.35,0.711 0.38,1.582 0.059,2.312c-0.33,0.813 -1.06,1.433 -1.912,1.645c-0.631,0.148 -1.301,0.089 -1.882,-0.182c-0.69,-0.33 -1.241,-0.941 -1.481,-1.672c-0.271,-0.812 -0.14,-1.732 0.34,-2.443z" fill="#060505"/>
   <g id="svg_6">
    <path id="svg_7" d="m33.589,37.603c-0.73,0.449 -1.482,0.87 -2.203,1.341c0.672,1.021 1.592,1.941 2.773,2.362c1.063,0.382 2.252,0.28 3.294,-0.12c0.99,-0.379 1.912,-0.941 2.714,-1.631c0.801,-0.701 1.43,-1.643 1.611,-2.703c0.23,-1.263 -0.16,-2.573 -0.861,-3.646c-2.433,1.473 -4.887,2.934 -7.328,4.397zm7.197,-5.027c0.151,-0.13 0.412,-0.11 0.512,0.08c0.751,1.071 1.211,2.372 1.161,3.684c-0.04,1.012 -0.431,1.982 -1.052,2.783c-0.76,0.982 -1.803,1.712 -2.912,2.282c-1.213,0.612 -2.623,0.942 -3.976,0.632c-1.581,-0.341 -2.863,-1.491 -3.685,-2.843c-0.09,-0.16 -0.25,-0.371 -0.109,-0.562c0.109,-0.121 0.26,-0.18 0.391,-0.27l9.67,-5.786z" fill="#060505" clip-rule="evenodd" fill-rule="evenodd"/>
   </g>
   <path id="svg_8" d="m24.208,36.581c0.641,-0.411 1.441,-0.531 2.172,-0.351c0.892,0.21 1.643,0.88 1.963,1.722c0.371,0.951 0.17,2.103 -0.521,2.854c-0.57,0.659 -1.451,1.021 -2.322,0.95c-0.77,-0.05 -1.502,-0.44 -1.992,-1.041c-0.49,-0.602 -0.711,-1.413 -0.59,-2.182c0.118,-0.791 0.599,-1.531 1.29,-1.952z" fill="#060505"/>
   <path id="svg_9" d="m46.044,27.3c0.74,-0.351 1.601,-0.47 2.402,-0.28c1.01,0.23 1.902,0.932 2.363,1.853c0.439,0.86 0.5,1.892 0.16,2.804c-0.352,0.98 -1.162,1.781 -2.152,2.111c-1.053,0.37 -2.264,0.211 -3.175,-0.42c-0.73,-0.49 -1.241,-1.262 -1.452,-2.111c0.853,-0.212 1.582,-0.832 1.912,-1.645c0.322,-0.73 0.292,-1.601 -0.058,-2.312z" fill="#ff4f00"/>
   <path id="svg_10" d="m22.126,42.848c0.18,-0.851 0.68,-1.633 1.381,-2.132c0.49,0.601 1.223,0.991 1.992,1.041c0.871,0.07 1.752,-0.291 2.322,-0.95c0.662,0.56 1.143,1.329 1.272,2.183c0.169,1.01 -0.13,2.092 -0.802,2.862c-0.66,0.791 -1.682,1.262 -2.723,1.242c-1.151,0.009 -2.283,-0.601 -2.914,-1.563c-0.528,-0.77 -0.718,-1.772 -0.528,-2.683z" fill="#ff4f00"/>
   <path id="svg_11" d="m33.589,37.603c2.441,-1.463 4.896,-2.924 7.328,-4.396c0.701,1.072 1.092,2.383 0.861,3.646c-0.182,1.061 -0.811,2.002 -1.611,2.703c-0.802,0.689 -1.724,1.252 -2.714,1.631c-1.042,0.4 -2.231,0.502 -3.294,0.12c-1.182,-0.421 -2.102,-1.341 -2.773,-2.362c0.72,-0.472 1.472,-0.893 2.203,-1.342z" fill="#F9B9D9"/>
  </g>
 </g>
</svg>