<?xml version="1.0" standalone="no"?>
<!DOCTYPE svg PUBLIC "-//W3C//DTD SVG 20010904//EN"
 "http://www.w3.org/TR/2001/REC-SVG-20010904/DTD/svg10.dtd">
<svg version="1.0" xmlns="http://www.w3.org/2000/svg"
 width="700.000000pt" height="700.000000pt" viewBox="0 0 700.000000 700.000000"
 preserveAspectRatio="xMidYMid meet">
<metadata>
Created by potrace 1.14, written by Peter Selinger 2001-2017
</metadata>
<g transform="translate(0.000000,700.000000) scale(0.100000,-0.100000)"
fill="#000000" stroke="none">
<path d="M2290 6833 c-232 -21 -485 -89 -685 -185 -69 -33 -70 -34 -185 -107
-409 -259 -742 -711 -965 -1310 -80 -216 -185 -580 -221 -766 -4 -22 -8 -44
-9 -50 -19 -85 -30 -142 -40 -205 -4 -25 -9 -52 -10 -60 -2 -14 -7 -40 -21
-135 -3 -16 -7 -41 -9 -55 -2 -14 -7 -47 -10 -75 -4 -27 -8 -62 -11 -78 -2
-15 -6 -51 -9 -80 -3 -28 -7 -72 -10 -97 -8 -62 -23 -220 -30 -322 -28 -370
-24 -866 10 -1118 2 -19 7 -60 10 -90 3 -30 8 -62 10 -70 2 -8 7 -33 10 -55 6
-49 7 -54 35 -175 96 -429 287 -783 538 -1000 35 -30 69 -60 75 -65 18 -16
137 -90 182 -114 225 -119 472 -175 780 -175 110 0 271 9 320 18 11 2 41 6 66
10 378 55 857 210 1344 434 91 42 497 247 565 285 25 14 65 37 90 50 25 14 61
34 80 46 19 11 42 24 50 28 8 3 50 28 93 55 43 26 81 48 83 48 2 0 21 11 42
24 20 13 109 68 197 122 439 268 859 563 1135 798 137 117 315 289 390 376 12
14 31 36 42 49 35 41 142 184 169 226 121 187 187 348 224 540 20 104 15 316
-9 430 -28 129 -91 291 -159 412 -23 41 -51 90 -61 109 -20 35 -161 225 -206
278 -157 183 -405 425 -590 576 -30 25 -57 47 -60 51 -4 5 -54 44 -249 197
-18 15 -41 31 -50 36 -9 5 -18 12 -21 15 -31 38 -594 423 -785 538 -270 162
-570 309 -835 411 -114 44 -311 110 -348 117 -13 2 -46 10 -75 19 -29 8 -97
24 -152 35 -129 26 -142 28 -211 36 -33 4 -70 9 -84 11 -30 6 -380 11 -430 7z
m1378 -518 c-3 -3 -9 2 -12 12 -6 14 -5 15 5 6 7 -7 10 -15 7 -18z m92 -82
l75 -78 -77 75 c-43 41 -78 76 -78 77 0 8 11 -3 80 -74z m115 -123 c21 -22 37
-40 34 -40 -3 0 -23 18 -44 40 -21 22 -37 40 -34 40 3 0 23 -18 44 -40z m65
-75 c13 -14 21 -25 18 -25 -2 0 -15 11 -28 25 -13 14 -21 25 -18 25 2 0 15
-11 28 -25z m45 -55 c10 -11 16 -20 13 -20 -3 0 -13 9 -23 20 -10 11 -16 20
-13 20 3 0 13 -9 23 -20z m40 -50 c10 -11 16 -20 13 -20 -3 0 -13 9 -23 20
-10 11 -16 20 -13 20 3 0 13 -9 23 -20z m36 -47 c13 -16 12 -17 -3 -4 -10 7
-18 15 -18 17 0 8 8 3 21 -13z m69 -93 c17 -22 29 -40 27 -40 -3 0 -20 18 -37
40 -17 22 -29 40 -27 40 3 0 20 -18 37 -40z m60 -81 c15 -28 5 -23 -15 7 -9
15 -12 23 -6 20 6 -4 16 -16 21 -27z m51 -76 c13 -16 12 -17 -3 -4 -10 7 -18
15 -18 17 0 8 8 3 21 -13z m60 -88 c7 -14 4 -12 -11 5 -11 14 -25 34 -31 45
-7 14 -4 12 11 -5 11 -14 25 -34 31 -45z m29 -45 c6 -11 8 -20 6 -20 -3 0 -10
9 -16 20 -6 11 -8 20 -6 20 3 0 10 -9 16 -20z m40 -61 c15 -28 5 -23 -15 7 -9
15 -12 23 -6 20 6 -4 16 -16 21 -27z m51 -84 l10 -20 -16 20 c-9 11 -21 29
-26 40 l-10 20 16 -20 c9 -11 21 -29 26 -40z m29 -45 c6 -11 8 -20 6 -20 -3 0
-10 9 -16 20 -6 11 -8 20 -6 20 3 0 10 -9 16 -20z m30 -50 c6 -11 8 -20 6 -20
-3 0 -10 9 -16 20 -6 11 -8 20 -6 20 3 0 10 -9 16 -20z m60 -105 c18 -33 28
-55 22 -50 -6 6 -25 37 -43 70 -17 33 -27 56 -22 50 6 -5 25 -37 43 -70z m54
-101 c3 -8 2 -12 -4 -9 -6 3 -10 10 -10 16 0 14 7 11 14 -7z m69 -140 c15 -34
29 -77 32 -95 4 -22 -1 -15 -13 21 -10 30 -33 84 -50 119 -18 34 -32 66 -32
70 0 11 35 -53 63 -115z m-4090 -49 c-3 -9 -8 -14 -10 -11 -3 3 -2 9 2 15 9
16 15 13 8 -4z m-16 -47 c-3 -8 -6 -5 -6 6 -1 11 2 17 5 13 3 -3 4 -12 1 -19z
m4150 -90 c-2 -13 -4 -5 -4 17 -1 22 1 32 4 23 2 -10 2 -28 0 -40z m-4170 20
c-3 -8 -6 -5 -6 6 -1 11 2 17 5 13 3 -3 4 -12 1 -19z m-22 -88 c-9 -41 -17
-33 -9 9 4 17 9 30 11 27 3 -2 2 -19 -2 -36z m4192 -12 c-2 -13 -4 -5 -4 17
-1 22 1 32 4 23 2 -10 2 -28 0 -40z m-4210 -50 c-3 -8 -6 -5 -6 6 -1 11 2 17
5 13 3 -3 4 -12 1 -19z m4193 -15 c-11 -17 -11 -17 -6 0 3 10 6 24 7 30 0 9 2
9 5 0 3 -7 0 -20 -6 -30z m-4203 -25 c-3 -8 -6 -5 -6 6 -1 11 2 17 5 13 3 -3
4 -12 1 -19z m4186 -13 c-3 -9 -8 -14 -10 -11 -3 3 -2 9 2 15 9 16 15 13 8 -4z
m-4198 -52 c-3 -16 -10 -32 -15 -37 -5 -5 -4 7 2 27 13 43 23 50 13 10z m4175
8 c-5 -11 -15 -23 -21 -27 -6 -3 -3 5 6 20 20 30 30 35 15 7z m-30 -44 c0 -2
-15 -16 -32 -33 l-33 -29 29 33 c28 30 36 37 36 29z m-4163 -39 c-3 -8 -6 -5
-6 6 -1 11 2 17 5 13 3 -3 4 -12 1 -19z m-10 -50 c-3 -8 -6 -5 -6 6 -1 11 2
17 5 13 3 -3 4 -12 1 -19z m4103 19 c0 -2 -10 -12 -22 -23 l-23 -19 19 23 c18
21 26 27 26 19z m-4121 -121 c-7 -31 -14 -54 -16 -52 -3 2 1 30 7 61 6 31 14
55 16 52 2 -2 -1 -29 -7 -61z m-22 -103 c-3 -10 -5 -4 -5 12 0 17 2 24 5 18 2
-7 2 -21 0 -30z m-12 -78 c-3 -26 -8 -45 -11 -43 -2 3 -1 26 2 52 4 25 9 44
12 42 2 -3 1 -26 -3 -51z m4540 25 c10 -11 16 -20 13 -20 -3 0 -13 9 -23 20
-10 11 -16 20 -13 20 3 0 13 -9 23 -20z m-4552 -117 c-3 -21 -9 -42 -14 -47
-4 -5 -6 0 -4 10 12 60 16 74 20 74 2 0 1 -17 -2 -37z m5069 -58 c25 -35 18
-29 -48 45 -39 44 -41 48 -10 20 21 -19 47 -48 58 -65z m-1637 -5 c-3 -5 -12
-10 -18 -10 -7 0 -6 4 3 10 19 12 23 12 15 0z m-3453 -42 c-6 -6 -7 0 -4 19 5
21 7 23 10 9 2 -10 0 -22 -6 -28z m5137 -48 c0 -8 -6 0 -14 19 -8 18 -15 36
-15 40 1 13 29 -45 29 -59z m-5142 -17 c-3 -10 -5 -2 -5 17 0 19 2 27 5 18 2
-10 2 -26 0 -35z m3283 13 c0 -2 -8 -10 -17 -17 -16 -13 -17 -12 -4 4 13 16
21 21 21 13z m1867 -38 c-3 -8 -6 -5 -6 6 -1 11 2 17 5 13 3 -3 4 -12 1 -19z
m-5162 -78 c-4 -34 -9 -59 -12 -57 -2 3 -1 33 3 66 4 34 9 60 11 57 3 -3 2
-32 -2 -66z m5165 -80 l-11 -25 6 25 c2 14 6 50 7 80 l2 55 3 -55 c2 -31 -1
-67 -7 -80z m-5179 -13 c-10 -9 -11 -8 -5 6 3 10 9 15 12 12 3 -3 0 -11 -7
-18z m-4 -54 c-3 -10 -5 -4 -5 12 0 17 2 24 5 18 2 -7 2 -21 0 -30z m5158 -10
c-9 -15 -13 -19 -10 -8 4 11 10 29 13 40 3 11 7 14 9 8 3 -7 -3 -24 -12 -40z
m-42 -72 c-15 -22 -30 -38 -32 -36 -3 4 49 75 56 75 2 0 -8 -18 -24 -39z
m-5126 -28 c-3 -10 -5 -4 -5 12 0 17 2 24 5 18 2 -7 2 -21 0 -30z m4153 -3
c12 -16 18 -30 13 -30 -4 0 -16 14 -25 30 -22 39 -15 39 12 0z m930 -13 c0 -2
-10 -12 -22 -23 l-23 -19 19 23 c18 21 26 27 26 19z m-5087 -22 c-3 -9 -8 -14
-10 -11 -3 3 -2 9 2 15 9 16 15 13 8 -4z m4197 -40 c0 -5 -5 -3 -10 5 -5 8
-10 20 -10 25 0 6 5 3 10 -5 5 -8 10 -19 10 -25z m835 15 c-3 -5 -12 -10 -18
-10 -7 0 -6 4 3 10 19 12 23 12 15 0z m-5038 -47 c-3 -10 -5 -2 -5 17 0 19 2
27 5 18 2 -10 2 -26 0 -35z m4221 -8 c-3 -3 -9 2 -12 12 -6 14 -5 15 5 6 7 -7
10 -15 7 -18z m22 -50 c0 -5 -5 -3 -10 5 -5 8 -10 20 -10 25 0 6 5 3 10 -5 5
-8 10 -19 10 -25z m-4253 -17 c-3 -8 -6 -5 -6 6 -1 11 2 17 5 13 3 -3 4 -12 1
-19z m4260 -20 c-3 -8 -6 -5 -6 6 -1 11 2 17 5 13 3 -3 4 -12 1 -19z m-4260
-35 c-3 -10 -5 -4 -5 12 0 17 2 24 5 18 2 -7 2 -21 0 -30z m4270 -5 c-3 -8 -6
-5 -6 6 -1 11 2 17 5 13 3 -3 4 -12 1 -19z m13 -38 c0 -5 -5 -10 -11 -10 -5 0
-7 5 -4 10 3 6 8 10 11 10 2 0 4 -4 4 -10z m-3 -117 c-2 -21 -4 -6 -4 32 0 39
2 55 4 38 2 -18 2 -50 0 -70z m-4284 62 c-7 -21 -12 -19 -10 4 0 11 5 18 9 15
4 -3 5 -11 1 -19z m-6 -72 c-3 -10 -5 -2 -5 17 0 19 2 27 5 18 2 -10 2 -26 0
-35z m4268 -94 c-8 -19 -13 -25 -9 -14 3 11 8 34 12 50 3 17 8 23 10 14 1 -9
-4 -32 -13 -50z m-1524 9 c15 -28 5 -21 -21 15 -15 20 -17 27 -6 18 9 -8 22
-23 27 -33z m-2747 -58 c-6 -6 -10 -3 -10 10 0 13 4 16 10 10 7 -7 7 -13 0
-20z m2785 -35 c0 -11 -6 -2 -14 20 -18 50 -18 57 0 25 8 -14 14 -34 14 -45z
m-2785 -19 c2 -14 0 -26 -5 -26 -4 0 -7 14 -7 30 1 35 8 33 12 -4z m4226 -5
c-11 -22 -24 -42 -29 -46 -6 -3 2 15 15 40 31 55 42 60 14 6z m-1437 -102 c-4
-4 -6 18 -3 49 l5 57 3 -49 c2 -27 0 -52 -5 -57z m-2796 39 c-3 -7 -5 -2 -5
12 0 14 2 19 5 13 2 -7 2 -19 0 -25z m4193 -1 c0 -2 -15 -16 -32 -33 l-33 -29
29 33 c28 30 36 37 36 29z m-4188 -52 c-6 -34 -13 -32 -10 4 1 16 5 28 9 26 3
-3 4 -16 1 -30z m2773 -50 c-23 -47 -29 -40 -8 8 9 20 19 35 21 33 2 -3 -4
-21 -13 -41z m1354 33 c-2 -2 -20 -16 -39 -33 l-35 -30 29 33 c17 17 34 32 40
32 5 0 7 -1 5 -2z m-4124 -57 c3 -5 1 -12 -5 -16 -5 -3 -10 1 -10 9 0 18 6 21
15 7z m4045 -5 c0 -2 -8 -10 -17 -17 -16 -13 -17 -12 -4 4 13 16 21 21 21 13z
m-1312 -36 c-7 -10 -14 -17 -17 -15 -4 4 18 35 25 35 2 0 -1 -9 -8 -20z
m-2732 -40 c1 -22 -1 -40 -5 -40 -4 0 -7 20 -7 44 0 55 9 51 12 -4z m2754 -5
c7 -9 8 -15 2 -15 -5 0 -12 7 -16 15 -3 8 -4 15 -2 15 2 0 9 -7 16 -15z m31
-42 c13 -16 12 -17 -3 -4 -17 13 -22 21 -14 21 2 0 10 -8 17 -17z m-2784 -25
c-3 -8 -6 -5 -6 6 -1 11 2 17 5 13 3 -3 4 -12 1 -19z m2811 -23 c-3 -3 -9 2
-12 12 -6 14 -5 15 5 6 7 -7 10 -15 7 -18z m-2806 -35 c2 -22 0 -40 -4 -40 -5
0 -8 18 -8 40 0 22 2 40 4 40 2 0 6 -18 8 -40z m2833 -17 c9 -20 14 -43 13
-50 -2 -7 -10 10 -20 37 -19 59 -15 66 7 13z m-2828 -48 c0 -8 -4 -12 -9 -9
-5 3 -6 10 -3 15 9 13 12 11 12 -6z m0 -72 c-3 -10 -5 -2 -5 17 0 19 2 27 5
18 2 -10 2 -26 0 -35z m2850 5 c-3 -8 -6 -5 -6 6 -1 11 2 17 5 13 3 -3 4 -12
1 -19z m-3 -60 c-4 -24 -11 -52 -15 -63 -5 -12 -6 -1 -2 25 4 25 7 53 7 63 0
9 4 17 8 17 5 0 5 -19 2 -42z m-2839 22 c3 -5 1 -10 -4 -10 -6 0 -11 5 -11 10
0 6 2 10 4 10 3 0 8 -4 11 -10z m2 -82 c-2 -13 -4 -5 -4 17 -1 22 1 32 4 23 2
-10 2 -28 0 -40z m10 -60 c-3 -7 -5 -2 -5 12 0 14 2 19 5 13 2 -7 2 -19 0 -25z
m2775 -25 c-17 -27 -46 -62 -64 -78 -31 -29 -30 -28 4 12 20 23 47 59 60 81
12 23 24 39 27 37 2 -2 -10 -26 -27 -52z m-2765 -60 c-3 -10 -5 -4 -5 12 0 17
2 24 5 18 2 -7 2 -21 0 -30z m15 -52 c2 -17 1 -28 -4 -25 -8 5 -12 54 -4 54 2
0 6 -13 8 -29z m2648 5 c0 -2 -8 -10 -17 -17 -16 -13 -17 -12 -4 4 13 16 21
21 21 13z m-2643 -68 c-3 -8 -6 -5 -6 6 -1 11 2 17 5 13 3 -3 4 -12 1 -19z
m21 -83 c0 -16 -2 -15 -8 5 -4 14 -8 34 -8 45 0 16 2 15 8 -5 4 -14 8 -34 8
-45z m21 -75 c0 -9 -4 -8 -9 5 -5 11 -9 27 -9 35 0 9 4 8 9 -5 5 -11 9 -27 9
-35z m8 -42 c-3 -8 -6 -5 -6 6 -1 11 2 17 5 13 3 -3 4 -12 1 -19z m20 -70 c-3
-8 -6 -5 -6 6 -1 11 2 17 5 13 3 -3 4 -12 1 -19z m32 -93 c0 -5 -4 -3 -9 5 -5
8 -9 22 -9 30 0 16 17 -16 18 -35z m21 -50 c0 -5 -5 -3 -10 5 -5 8 -10 20 -10
25 0 6 5 3 10 -5 5 -8 10 -19 10 -25z m24 -61 c3 -8 2 -12 -4 -9 -6 3 -10 10
-10 16 0 14 7 11 14 -7z m56 -117 c0 -16 -18 3 -23 25 -6 22 -5 22 8 4 8 -11
15 -24 15 -29z m18 -42 c-3 -3 -9 2 -12 12 -6 14 -5 15 5 6 7 -7 10 -15 7 -18z
m37 -57 c16 -24 22 -38 14 -31 -15 12 -53 73 -46 73 2 0 17 -19 32 -42z m70
-103 c22 -29 28 -41 14 -28 -13 12 -33 37 -43 55 -24 42 -18 36 29 -27z m80
-95 c21 -22 37 -40 34 -40 -3 0 -23 18 -44 40 -21 22 -37 40 -34 40 3 0 23
-18 44 -40z m91 -92 l29 -33 -32 29 c-31 28 -38 36 -30 36 2 0 16 -15 33 -32z
m55 -45 c13 -16 12 -17 -3 -4 -10 7 -18 15 -18 17 0 8 8 3 21 -13z"/>
</g>
</svg>
